<svg width="47" height="47" viewBox="0 0 47 47" fill="none" xmlns="http://www.w3.org/2000/svg">
<g clip-path="url(#clip0_10_13)">
<path d="M11.75 19.5834C9.59581 19.5834 7.83331 21.3459 7.83331 23.5C7.83331 25.6542 9.59581 27.4167 11.75 27.4167C13.9041 27.4167 15.6666 25.6542 15.6666 23.5C15.6666 21.3459 13.9041 19.5834 11.75 19.5834ZM35.25 19.5834C33.0958 19.5834 31.3333 21.3459 31.3333 23.5C31.3333 25.6542 33.0958 27.4167 35.25 27.4167C37.4041 27.4167 39.1666 25.6542 39.1666 23.5C39.1666 21.3459 37.4041 19.5834 35.25 19.5834ZM23.5 19.5834C21.3458 19.5834 19.5833 21.3459 19.5833 23.5C19.5833 25.6542 21.3458 27.4167 23.5 27.4167C25.6541 27.4167 27.4166 25.6542 27.4166 23.5C27.4166 21.3459 25.6541 19.5834 23.5 19.5834Z" fill="white"/>
</g>
<defs>
<clipPath id="clip0_10_13">
<rect width="47" height="47" fill="white"/>
</clipPath>
</defs>
</svg>
