<svg width="48" height="48" viewBox="0 0 48 48" fill="none" xmlns="http://www.w3.org/2000/svg">
<path d="M23.5537 43.4151C25.7076 43.4459 27.4951 41.7088 27.526 39.5549L19.6934 39.4428C19.6626 41.5967 21.3801 43.384 23.5537 43.4151ZM35.4705 31.8344L35.6106 22.0437C35.6966 16.0322 32.5573 10.9539 26.9761 9.54225L26.9951 8.21072C27.0184 6.58547 25.7252 5.25475 24.0999 5.2315C22.4747 5.20825 21.144 6.50143 21.1207 8.12668L21.1017 9.45821C15.4628 10.7093 12.1993 15.6765 12.113 21.7075L11.9729 31.4982L8.00065 35.3584L7.97264 37.3166L39.3028 37.7648L39.3308 35.8067L35.4705 31.8344Z" fill="white"/>
</svg>
