<svg width="43" height="41" viewBox="0 0 43 41" fill="none" xmlns="http://www.w3.org/2000/svg">
<g clip-path="url(#clip0_25_4)">
<path d="M27.7708 23.9167H26.3554L25.8538 23.4554C27.6096 21.5079 28.6667 18.9796 28.6667 16.2292C28.6667 10.0963 23.4529 5.125 17.0208 5.125C10.5888 5.125 5.375 10.0963 5.375 16.2292C5.375 22.3621 10.5888 27.3333 17.0208 27.3333C19.9054 27.3333 22.5571 26.3254 24.5996 24.6513L25.0833 25.1296V26.4792L34.0417 35.0038L36.7113 32.4583L27.7708 23.9167ZM17.0208 23.9167C12.5596 23.9167 8.95833 20.4829 8.95833 16.2292C8.95833 11.9754 12.5596 8.54167 17.0208 8.54167C21.4821 8.54167 25.0833 11.9754 25.0833 16.2292C25.0833 20.4829 21.4821 23.9167 17.0208 23.9167Z" fill="white"/>
</g>
<defs>
<clipPath id="clip0_25_4">
<rect width="43" height="41" fill="white"/>
</clipPath>
</defs>
</svg>
